<?xml version="1.0" encoding="utf-8"?>
<!-- Generator: Adobe Illustrator 22.1.0, SVG Export Plug-In . SVG Version: 6.00 Build 0)  -->
<svg version="1.1" id="left_x5F_arrow_1_" xmlns="http://www.w3.org/2000/svg" xmlns:xlink="http://www.w3.org/1999/xlink" x="0px"
	 y="0px" width="40px" height="40px" viewBox="0 0 40 40" style="enable-background:new 0 0 40 40;" xml:space="preserve">
<style type="text/css">
	.st0{fill:#FFFFFF;}
</style>
<path class="st0" d="M20,40L20,40C9,40,0,31,0,20l0,0C0,9,9,0,20,0l0,0c11,0,20,9,20,20l0,0C40,31,31,40,20,40z"/>
<path d="M22.7,30.8c-0.6,0-1.1-0.2-1.6-0.7l-8.6-8.6c-0.9-0.9-0.9-2.3,0-3.1l8.6-8.6C22,9,23.4,9,24.3,9.8c0.9,0.9,0.9,2.3,0,3.1
	l-7,7l7,7c0.9,0.9,0.9,2.3,0,3.1C23.9,30.6,23.3,30.8,22.7,30.8z"/>
</svg>
