<?xml version="1.0" encoding="utf-8"?>
<!-- Generator: Adobe Illustrator 22.1.0, SVG Export Plug-In . SVG Version: 6.00 Build 0)  -->
<svg version="1.1" id="right_x5F_arrow_1_" xmlns="http://www.w3.org/2000/svg" xmlns:xlink="http://www.w3.org/1999/xlink" x="0px"
	 y="0px" width="40px" height="40px" viewBox="0 0 40 40" style="enable-background:new 0 0 40 40;" xml:space="preserve">
<style type="text/css">
	.st0{fill:#FFFFFF;}
</style>
<path class="st0" d="M20,0L20,0c11,0,20,9,20,20l0,0c0,11-9,20-20,20l0,0C9,40,0,31,0,20l0,0C0,9,9,0,20,0z"/>
<path d="M17.3,30.8c-0.6,0-1.1-0.2-1.6-0.7c-0.9-0.9-0.9-2.3,0-3.1l7-7l-7-7c-0.9-0.9-0.9-2.3,0-3.1C16.6,9,18,9,18.8,9.8l8.6,8.6
	c0.4,0.4,0.7,1,0.7,1.6s-0.2,1.2-0.7,1.6l-8.6,8.6C18.4,30.6,17.8,30.8,17.3,30.8z"/>
</svg>
