<?xml version="1.0" encoding="utf-8"?>
<!-- Generator: Adobe Illustrator 22.1.0, SVG Export Plug-In . SVG Version: 6.00 Build 0)  -->
<svg version="1.1" id="close_1_" xmlns="http://www.w3.org/2000/svg" xmlns:xlink="http://www.w3.org/1999/xlink" x="0px" y="0px"
	 width="40px" height="40px" viewBox="0 0 40 40" style="enable-background:new 0 0 40 40;" xml:space="preserve">
<style type="text/css">
	.st0{fill:url(#SVGID_1_);}
	.st1{fill:#FFFFFF;}
</style>
<g>
	<linearGradient id="SVGID_1_" gradientUnits="userSpaceOnUse" x1="20" y1="40" x2="20" y2="-9.094947e-13">
		<stop  offset="0" style="stop-color:#F00969"/>
		<stop  offset="1" style="stop-color:#F0541E"/>
	</linearGradient>
	<path class="st0" d="M20,0L20,0c11,0,20,9,20,20l0,0c0,11-9,20-20,20l0,0C9,40,0,31,0,20l0,0C0,9,9,0,20,0z"/>
</g>
<g>
	<path class="st1" d="M12.2,27.8c-0.9-0.9-0.9-2.3,0-3.3l12.3-12.3c0.9-0.9,2.3-0.9,3.3,0c0.9,0.9,0.9,2.3,0,3.3L15.5,27.8
		C14.6,28.6,13.1,28.7,12.2,27.8z"/>
	<path class="st1" d="M24.5,27.8L12.2,15.5c-0.9-0.9-0.9-2.3,0-3.3c0.9-0.9,2.3-0.9,3.3,0l12.3,12.3c0.9,0.9,0.9,2.3,0,3.3
		C26.9,28.7,25.4,28.7,24.5,27.8z"/>
</g>
</svg>
