<?xml version="1.0" encoding="utf-8"?>
<!-- Generator: Adobe Illustrator 22.1.0, SVG Export Plug-In . SVG Version: 6.00 Build 0)  -->
<svg version="1.1" id="logo" xmlns="http://www.w3.org/2000/svg" xmlns:xlink="http://www.w3.org/1999/xlink" x="0px" y="0px"
	 width="181px" height="40px" viewBox="0 0 181 40" style="enable-background:new 0 0 181 40;" xml:space="preserve">
<style type="text/css">
	.st0{fill:#27AC3A;}
</style>
<g id="EMEC">
	<path class="st0" d="M50,0c-6.1,0-10.4,5-10.4,11v0.1c0,6.4,4.7,10.9,11,10.9c3.8,0,6.7-1.5,8.6-3.9l-3.4-3
		c-1.7,1.5-3.1,2.2-5.1,2.2c-2.7,0-4.6-1.4-5.2-4.1h14.7c0-0.6,0.1-1.1,0.1-1.6C60.3,5.5,57.1,0,50,0z M45.5,9.3
		c0.4-2.7,2.1-4.5,4.5-4.5c2.5,0,4.1,1.8,4.5,4.5H45.5z"/>
	<path class="st0" d="M88.6,0c-2.9,0-5.1,1.2-6.9,3.3c-1.1-2.1-3.2-3.3-6-3.3c-3,0-4.8,1.6-6.2,3.4v-3h-6v21.1h6V9.7
		c0-2.8,1.4-4.3,3.6-4.3c2.2,0,3.5,1.5,3.5,4.3v11.8h6V9.7c0-2.8,1.4-4.3,3.6-4.3s3.5,1.5,3.5,4.3v11.8h6V7.8C95.7,2.7,93,0,88.6,0z
		"/>
	<path class="st0" d="M109.2,0c-6.1,0-10.4,5-10.4,11v0.1c0,6.5,4.7,10.9,11,10.9c3.8,0,6.7-1.5,8.6-3.9l-3.4-3
		c-1.7,1.5-3.1,2.2-5.1,2.2c-2.7,0-4.6-1.4-5.2-4.1h14.7c0-0.6,0.1-1.1,0.1-1.6C119.5,5.5,116.3,0,109.2,0z M104.6,9.3
		c0.5-2.7,2.1-4.5,4.6-4.5s4.1,1.8,4.5,4.5H104.6z"/>
	<path class="st0" d="M133.2,16.8c-3.3,0-5.4-2.6-5.4-5.8v-0.1c0-3.1,2.1-5.8,5.1-5.8c2.1,0,3.5,0.9,4.8,2.3l3.7-3.9
		c-2-2.2-4.5-3.5-8.4-3.5c-6.5,0-11.1,5-11.1,11v0.1c0,6,4.7,10.9,11,10.9c4.2,0,6.6-1.6,8.6-3.9l-3.5-3.5
		C136.5,16,135.2,16.8,133.2,16.8z"/>
	<path class="st0" d="M164.2,13.6c5.3-4,10.9-8.2,16.2-8.2h0.5V2.3h-0.5c-5.7,0-11.3,4.3-16.8,8.4c-5.3,4-10.9,8.2-16.2,8.2h-0.5
		v0.5V22h0.5C153.1,22,158.8,17.7,164.2,13.6z"/>
	<path class="st0" d="M164.3,22.6c5.3-4,10.9-8.2,16.2-8.2h0.5v-3.1h-0.5c-5.7,0-11.3,4.3-16.8,8.4c-5.3,4-10.9,8.2-16.2,8.2H147
		v0.5V31h0.5C153.1,31,158.8,26.7,164.3,22.6z"/>
	<path class="st0" d="M181,20.3h-0.5c-5.7,0-11.3,4.3-16.8,8.4c-5.3,4-10.9,8.2-16.2,8.2H147v0.5V40h0.5c5.7,0,11.3-4.3,16.8-8.4
		c5.3-4,10.9-8.2,16.2-8.2h0.5V20.3z"/>
</g>
</svg>
