<?xml version="1.0" encoding="utf-8"?>
<!-- Generator: Adobe Illustrator 22.1.0, SVG Export Plug-In . SVG Version: 6.00 Build 0)  -->
<svg version="1.1" id="more_1_" xmlns="http://www.w3.org/2000/svg" xmlns:xlink="http://www.w3.org/1999/xlink" x="0px" y="0px"
	 width="40px" height="40px" viewBox="0 0 40 40" style="enable-background:new 0 0 40 40;" xml:space="preserve">
<style type="text/css">
	.st0{fill:#FFFFFF;}
</style>
<path class="st0" d="M20,0L20,0c11,0,20,9,20,20l0,0c0,11-9,20-20,20l0,0C9,40,0,31,0,20l0,0C0,9,9,0,20,0z"/>
<g>
	<path d="M11.7,26.3c0-1.2,0.9-2.1,2.1-2.1h13.1c1.2,0,2.1,0.9,2.1,2.1s-0.9,2.1-2.1,2.1H13.8C12.7,28.4,11.7,27.5,11.7,26.3z"/>
	<path d="M26.9,22.1H11.1C9.9,22.1,9,21.2,9,20s0.9-2.1,2.1-2.1h15.8c1.2,0,2.1,0.9,2.1,2.1C29,21.2,28.1,22.1,26.9,22.1z"/>
	<path d="M26.9,15.8H16.5c-1.2,0-2.1-0.9-2.1-2.1s0.9-2.1,2.1-2.1h10.4c1.2,0,2.1,0.9,2.1,2.1S28.1,15.8,26.9,15.8z"/>
</g>
</svg>
