<?xml version="1.0" encoding="utf-8"?>
<!-- Generator: Adobe Illustrator 22.1.0, SVG Export Plug-In . SVG Version: 6.00 Build 0)  -->
<svg version="1.1" id="smile_bad" xmlns="http://www.w3.org/2000/svg" xmlns:xlink="http://www.w3.org/1999/xlink" x="0px"
	 y="0px" width="140px" height="180px" viewBox="0 0 140 180" style="enable-background:new 0 0 140 180;" xml:space="preserve">
<!--<style type="text/css">
	.st0{fill:url(#SVGID_1_);}
	.st1{fill:url(#SVGID_2_);}
	.st2{fill:#FFFFFF;}
</style>-->
<g id="goccia_2_">
	
		<linearGradient id="SVGID_1_" gradientUnits="userSpaceOnUse" x1="70.0507" y1="10.3019" x2="70.0507" y2="173.675" gradientTransform="matrix(1 0 0 -1 0 182)">
		<stop  offset="0" style="stop-color:#FFFFFF;stop-opacity:0.6"/>
		<stop  offset="3.138826e-02" style="stop-color:#FFFFFF;stop-opacity:0.5552"/>
		<stop  offset="0.35" style="stop-color:#FFFFFF;stop-opacity:0.1"/>
		<stop  offset="1" style="stop-color:#FFFFFF;stop-opacity:0.5"/>
	</linearGradient>
	<path class="st0" d="M63.7,10.8C44.2,28.6-11.8,86.4,14.5,138.2c8.3,16.4,24.1,28.3,42.2,32.1c40.3,8.4,75.8-22.2,75.8-61
		c0-42.8-40.2-83.9-56.1-98.5C72.8,7.5,67.3,7.5,63.7,10.8z"/>
	
		<linearGradient id="SVGID_2_" gradientUnits="userSpaceOnUse" x1="70.0507" y1="10.3019" x2="70.0507" y2="173.675" gradientTransform="matrix(1 0 0 -1 0 182)">
		<stop  offset="0" style="stop-color:#FFFFFF;stop-opacity:0.6"/>
		<stop  offset="4.946898e-02" style="stop-color:#FFFFFF;stop-opacity:0.5293"/>
		<stop  offset="0.35" style="stop-color:#FFFFFF;stop-opacity:0.1"/>
		<stop  offset="0.9081" style="stop-color:#FFFFFF;stop-opacity:0.4435"/>
		<stop  offset="1" style="stop-color:#FFFFFF;stop-opacity:0.5"/>
	</linearGradient>
	<path class="st1" d="M63.7,10.8C44.2,28.6-11.8,86.4,14.5,138.2c8.3,16.4,24.1,28.3,42.2,32.1c40.3,8.4,75.8-22.2,75.8-61
		c0-42.8-40.2-83.9-56.1-98.5C72.8,7.5,67.3,7.5,63.7,10.8z"/>
	<path class="st2" d="M70,8.3c2.3,0,4.6,0.8,6.4,2.5c15.9,14.6,56.1,55.7,56.1,98.5c0,34.5-27.9,62.4-62.4,62.4
		c-4.4,0-8.8-0.4-13.4-1.4c-18.1-3.7-33.8-15.6-42.2-32.1C-11.8,86.4,44.2,28.6,63.7,10.8C65.5,9.1,67.7,8.3,70,8.3 M70,0.7
		c-4.2,0-8.3,1.6-11.4,4.4c-10.3,9.5-29.7,29-43.3,52.9C7.5,71.7,2.7,85.1,0.8,97.9c-2.2,15.6,0.1,30.4,6.9,43.8
		c4.6,9.1,11.4,17.2,19.6,23.4s17.8,10.6,27.8,12.7c4.9,1,10,1.5,14.9,1.5c9.4,0,18.6-1.9,27.3-5.5c8.3-3.5,15.8-8.6,22.3-15
		c6.4-6.4,11.5-13.9,15-22.2c3.7-8.6,5.5-17.8,5.5-27.3c0-45.4-40.9-87.9-58.5-104.1C78.3,2.3,74.2,0.7,70,0.7L70,0.7z"/>
	<path class="st2" d="M47.2,38.3c-0.4,0-0.7-0.1-1-0.4c-0.6-0.6-0.7-1.5-0.1-2.1c1.6-1.8,3.2-3.5,4.9-5.1c0.6-0.6,1.6-0.6,2.1,0
		c0.6,0.6,0.6,1.6,0,2.1c-1.6,1.6-3.2,3.3-4.7,5C48,38.1,47.6,38.3,47.2,38.3z"/>
	<path class="st2" d="M28.4,65.4c-0.2,0-0.5-0.1-0.7-0.2c-0.7-0.4-1-1.3-0.6-2c3.9-7.5,8.6-14.7,14-21.6c0.5-0.7,1.5-0.8,2.1-0.2
		c0.7,0.5,0.8,1.5,0.2,2.1c-5.3,6.7-9.9,13.8-13.7,21.1C29.5,65.1,28.9,65.4,28.4,65.4z"/>
</g>
<g id="smile_bad_face">
	<path class="st2" d="M29.3,108.2c-0.8,0-1.6-0.5-2-1.3c-0.6-1.1-0.1-2.5,1-3l8.1-4l-8.1-4c-1.1-0.6-1.6-1.9-1-3s1.9-1.6,3-1
		L42.4,98c0.8,0.4,1.3,1.2,1.3,2c0,0.9-0.5,1.6-1.3,2l-12.1,6.1C29.9,108.1,29.6,108.2,29.3,108.2z"/>
	<path class="st2" d="M110.7,108.2c-0.3,0-0.7-0.1-1-0.2l-12.1-6.1c-0.8-0.4-1.3-1.2-1.3-2c0-0.9,0.5-1.6,1.3-2l12.1-6.1
		c1.1-0.6,2.5-0.1,3,1c0.6,1.1,0.1,2.5-1,3l-8.1,4l8.1,4c1.1,0.6,1.6,1.9,1,3C112.4,107.7,111.6,108.2,110.7,108.2z"/>
	<path class="st2" d="M70,119.3c-3,0-5.8-1.4-7.5-3.8c-1.8-2.4-2.3-5.4-1.4-8.2c2.7-8.5,7.5-14.2,7.8-14.5c0.5-0.6,1.5-0.7,2.1-0.2
		s0.7,1.5,0.2,2.1l0,0c0,0.1-4.7,5.6-7.2,13.4c-0.6,1.9-0.3,3.9,0.9,5.5s3.1,2.6,5.1,2.6c0.8,0,1.5,0.7,1.5,1.5
		C71.5,118.6,70.8,119.3,70,119.3z"/>
	<path class="st2" d="M93.1,147.4c-0.4,0-0.9-0.1-1.3-0.4c-6.5-4.3-14-6.6-21.9-6.6S54.5,142.7,48,147c-1,0.7-2.5,0.4-3.2-0.6
		s-0.4-2.5,0.6-3.2c7.2-4.8,15.7-7.4,24.4-7.4s17.2,2.6,24.4,7.4c1,0.7,1.3,2.1,0.6,3.2C94.6,147,93.8,147.4,93.1,147.4z"/>
</g>
</svg>
