<?xml version="1.0" encoding="utf-8"?>
<!-- Generator: Adobe Illustrator 22.1.0, SVG Export Plug-In . SVG Version: 6.00 Build 0)  -->
<svg version="1.1" id="swipe_up" xmlns="http://www.w3.org/2000/svg" xmlns:xlink="http://www.w3.org/1999/xlink" x="0px" y="0px"
	 width="40px" height="40px" viewBox="0 0 40 40" style="enable-background:new 0 0 40 40;" xml:space="preserve">
<style type="text/css">
	.st0{fill:#FFFFFF;}
</style>
<g>
	<path class="st0" d="M31.3,15.3c-0.5,0-1-0.2-1.4-0.6L20,4.8l-9.9,9.9c-0.8,0.8-2,0.8-2.8,0c-0.8-0.8-0.8-2,0-2.8L18.6,0.6
		c0.8-0.8,2-0.8,2.8,0l11.3,11.3c0.8,0.8,0.8,2,0,2.8C32.3,15.1,31.8,15.3,31.3,15.3z"/>
</g>
<g>
	<path class="st0" d="M20,28c-1.1,0-2-0.9-2-2V1.9c0-1.1,0.9-2,2-2s2,0.9,2,2V26C22,27.1,21.1,28,20,28z"/>
</g>
<g>
	<path class="st0" d="M20,40.1c-1.1,0-2-0.9-2-2v-4c0-1.1,0.9-2,2-2s2,0.9,2,2v4C22,39.2,21.1,40.1,20,40.1z"/>
</g>
</svg>
