<svg width="150" fill="#ffffff" id="Layer_1" data-name="Layer 1" xmlns="http://www.w3.org/2000/svg" viewBox="0 0 532.06 199.89"><path class="cls-1" d="M158,360.66H162a2.8,2.8,0,0,0,3-3.14V342h13.73a2.8,2.8,0,0,0,3.14-3v-2.1a2.86,2.86,0,0,0-3.14-3.07H165V323h19.05a2.86,2.86,0,0,0,3.14-3.07v-2.45a2.8,2.8,0,0,0-3.14-3h-26a2.86,2.86,0,0,0-3.14,3.07v40A2.86,2.86,0,0,0,158,360.66Z" transform="translate(-154.91 -174.07)"/><path class="cls-1" d="M207.54,361.57c11.09,0,19.45-8.06,19.45-18.75s-8.36-18.75-19.45-18.75S188,332.13,188,342.82,196.41,361.57,207.54,361.57Zm0-28.77c5.52,0,9.53,4.21,9.53,10s-4,9.95-9.53,9.95-9.6-4.18-9.6-9.95S202,332.8,207.54,332.8Z" transform="translate(-154.91 -174.07)"/><path class="cls-1" d="M258,324.72a14.65,14.65,0,0,0-4.51-.65,11.42,11.42,0,0,0-9.62,4.76c-1.09-3-3.78-4.76-7.46-4.76a11,11,0,0,0-5.06,1.23c-1.32.7-1.68,1.79-1.15,3.38l.64,3a2.73,2.73,0,0,0,1.24,1.71,1.57,1.57,0,0,0,1.19.05,5.59,5.59,0,0,0,.93-.25,4,4,0,0,1,1-.23c.17,0,.57,0,.57.78v23.87a2.76,2.76,0,0,0,2.93,3.07h4.06a2.82,2.82,0,0,0,3-3.07V340.93c0-5.06,2.6-8.2,6.8-8.2a9.39,9.39,0,0,1,3.05.54,2.42,2.42,0,0,0,1.94-.08,2.77,2.77,0,0,0,1.22-1.77l.9-3.49C260.29,325.79,259.08,325.09,258,324.72Z" transform="translate(-154.91 -174.07)"/><path class="cls-1" d="M294.69,352.45,293,350.78c-1.44-1.53-2.74-.88-3.82,0a14,14,0,0,1-8.68,3.08c-4.65,0-9.59-2.65-10.33-8.56H294c2.22,0,3.21-1,3.21-3.21a17.47,17.47,0,0,0-18.26-18c-10.82,0-18.68,7.89-18.68,18.75s8.15,18.75,19.38,18.75c4.47,0,11.09-1.42,15-5.43A2.38,2.38,0,0,0,294.69,352.45Zm-15.85-20.84a8.11,8.11,0,0,1,6.2,2.49,8.89,8.89,0,0,1,2.36,4.74H270.28A8.29,8.29,0,0,1,278.84,331.61Z" transform="translate(-154.91 -174.07)"/><path class="cls-1" d="M316.64,361.57c8.58,0,14.13-4.34,14.13-11.05s-4.95-9.31-10.93-11.73l-1.28-.49c-3.32-1.27-5.71-2.18-5.71-3.95,0-1.58,1.6-2.6,4.07-2.6a10.22,10.22,0,0,1,7,2.66,3,3,0,0,0,4.32-.41l1-1.25c1.45-1.73,1.4-3.07-.17-4.46-2.7-2.56-7.46-4.22-12.13-4.22-8.29,0-13.64,4.23-13.64,10.77,0,7.05,6.41,9.24,12,11.16l.6.24c2.83,1.12,5.28,2.09,5.28,4.42,0,1.83-1.82,3-4.63,3a13.15,13.15,0,0,1-8.6-3.49c-1.6-1.34-3-1.26-4.39.24l-1.19,1.33a3.13,3.13,0,0,0-1.05,2.2,3.17,3.17,0,0,0,1.2,2.19C305.62,359.44,311.15,361.57,316.64,361.57Z" transform="translate(-154.91 -174.07)"/><path class="cls-1" d="M337.94,332.31H341v16.32c0,9.54,6.54,12.94,12.66,12.94a13.87,13.87,0,0,0,8-2.31c.63-.43,2.27-1.57,1.31-3.41l-1.27-3a2.68,2.68,0,0,0-1.52-1.49,2.47,2.47,0,0,0-2,.45,6.21,6.21,0,0,1-3,1c-2.88,0-4.28-1.65-4.28-5V332.31h7.43a2.82,2.82,0,0,0,3.07-3v-1.75a2.76,2.76,0,0,0-3.07-2.93H351v-9.32c0-.07,0-.46,0-.57a2.71,2.71,0,0,0-3-2.7h-3.85a2.8,2.8,0,0,0-3.07,3.07v9.52h-3.09a2.76,2.76,0,0,0-3.07,2.93v1.75A2.82,2.82,0,0,0,337.94,332.31Z" transform="translate(-154.91 -174.07)"/><path class="cls-1" d="M430.35,314.48h-4.06a2.76,2.76,0,0,0-3,3.07v15.69H403V317.55a2.76,2.76,0,0,0-3-3.07H396a2.79,2.79,0,0,0-3.06,3.07v40a2.85,2.85,0,0,0,3.06,3.14H400a2.8,2.8,0,0,0,3-3.14V341.76H423.3v15.76c0,2,1.09,3.14,3,3.14h4.06a2.86,2.86,0,0,0,3.07-3.14v-40A2.8,2.8,0,0,0,430.35,314.48Z" transform="translate(-154.91 -174.07)"/><path class="cls-1" d="M459.9,324.07c-11.12,0-19.51,8.06-19.51,18.75s8.39,18.75,19.51,18.75,19.45-8.06,19.45-18.75S471,324.07,459.9,324.07Zm0,28.7c-5.56,0-9.6-4.19-9.6-9.95s4-10,9.6-10,9.53,4.21,9.53,10S465.43,352.77,459.9,352.77Z" transform="translate(-154.91 -174.07)"/><path class="cls-1" d="M493.19,313.15h-3.88a2.8,2.8,0,0,0-3.07,3.07v41.37a2.8,2.8,0,0,0,3.07,3.07h3.88a2.79,2.79,0,0,0,3-3.07V316.22A2.79,2.79,0,0,0,493.19,313.15Z" transform="translate(-154.91 -174.07)"/><path class="cls-1" d="M511.76,307.43a5.73,5.73,0,0,0-5.72,5.72,5.66,5.66,0,0,0,5.72,5.72,5.72,5.72,0,1,0,0-11.44Z" transform="translate(-154.91 -174.07)"/><path class="cls-1" d="M513.79,324.63h-4.06a2.76,2.76,0,0,0-3,3v30a2.76,2.76,0,0,0,3,3h4.06a2.73,2.73,0,0,0,2.93-3v-30A2.73,2.73,0,0,0,513.79,324.63Z" transform="translate(-154.91 -174.07)"/><path class="cls-1" d="M566.5,354.4c-.61-1.84-1.72-2-2.55-1.77a5.66,5.66,0,0,0-.83.19,2.58,2.58,0,0,1-.79.16c-.34,0-.57-.07-.57-1V314.88a2.75,2.75,0,0,0-3-3.06h-3.93a2.78,2.78,0,0,0-3.06,3.06v12.31a17.86,17.86,0,0,0-10.09-3.12c-10.21,0-17.91,8.06-17.91,18.75s7.7,18.75,17.91,18.75a16.06,16.06,0,0,0,11.88-5.13,7.1,7.1,0,0,0,7.16,5.13,11.27,11.27,0,0,0,5.49-1.38c.94-.54,1.8-1.36,1.06-3.33Zm-23.42-1.63c-5.44,0-9.39-4.19-9.39-9.95s3.95-10,9.39-10c4.61,0,9.25,3.09,9.25,10C552.33,348.68,548.53,352.77,543.08,352.77Z" transform="translate(-154.91 -174.07)"/><path class="cls-1" d="M604.74,324.42h-2.59a2.76,2.76,0,0,0-3,3v.86a17.61,17.61,0,0,0-11.49-4.21c-10.21,0-17.91,8.06-17.91,18.75s7.7,18.75,17.91,18.75a15.9,15.9,0,0,0,11.49-4.75v.77a2.82,2.82,0,0,0,3,3.07h2.59a2.82,2.82,0,0,0,3-3.07V327.42A2.76,2.76,0,0,0,604.74,324.42Zm-15.68,28.35c-5.44,0-9.39-4.19-9.39-9.95s4-10,9.39-10c4.61,0,9.25,3.09,9.25,10C598.31,348.68,594.51,352.77,589.06,352.77Z" transform="translate(-154.91 -174.07)"/><path class="cls-1" d="M648.77,324.63h-4.06a2.73,2.73,0,0,0-2.93,3V341.7c0,4.43-2.7,7.29-6.87,7.29-4,0-6.59-2.78-6.59-7.08v-8.75c0-6-2.78-9.09-8-9.09a12.88,12.88,0,0,0-6,1.51c-1.36.72-1.68,1.6-1.15,3.1l.64,3c.66,1.87,1.67,2,2.42,1.76a5.45,5.45,0,0,0,.94-.25,4,4,0,0,1,1-.23c.17,0,.57,0,.57.78v9.45c0,8.66,5.71,14.48,14.2,14.48a13.3,13.3,0,0,0,9.6-3.77v4.06c0,5.22-3.54,8.34-9.46,8.34a13.48,13.48,0,0,1-9.84-4.24,2.2,2.2,0,0,0-3.51-.05l-1.87,2.22c-1.5,1.5-.93,2.56-.08,3.48A20.06,20.06,0,0,0,633,374c11.78,0,18.82-6.53,18.82-17.48V327.63A2.76,2.76,0,0,0,648.77,324.63Z" transform="translate(-154.91 -174.07)"/><path class="cls-1" d="M676.05,338.79l-1.28-.49c-3.32-1.27-5.71-2.18-5.71-3.95,0-1.58,1.6-2.6,4.07-2.6a10.2,10.2,0,0,1,7,2.66,3,3,0,0,0,4.32-.42l1-1.25c1.45-1.72,1.4-3.06-.17-4.45-2.7-2.56-7.46-4.22-12.13-4.22-8.28,0-13.64,4.23-13.64,10.77,0,7.05,6.41,9.24,12,11.16l.6.24c2.83,1.12,5.28,2.09,5.28,4.42,0,1.83-1.82,3-4.63,3a13.15,13.15,0,0,1-8.6-3.49c-1.59-1.34-3-1.26-4.39.24l-1.18,1.32a2.71,2.71,0,0,0,.14,4.4c3.08,3.29,8.61,5.42,14.1,5.42,8.58,0,14.13-4.34,14.13-11.05S682,341.21,676.05,338.79Z" transform="translate(-154.91 -174.07)"/><path class="cls-1" d="M499.74,285h0L499,284c-.63-.85-1.32-1.75-2.19-2.84-1.42-1.79-2.95-3.63-4.55-5.46-3.06-3.51-6.34-7-9.73-10.25-6.29-6.12-11.75-11.25-18.77-16.26a11.79,11.79,0,0,0,5.75-2.07,18.23,18.23,0,0,0,5.78-6.86c4.12-8.05,6-22.93-8.61-48.09-2.59-4.46-5-8.05-6.62-10.28-.22-.3-.42-.59-.62-.85a2.25,2.25,0,0,0-1.72-.94,2.55,2.55,0,0,0-.39,0,2.26,2.26,0,0,0-1.82,1.41c-.59,1.5-1.5,3.91-2.51,6.9a135.38,135.38,0,0,0-5.77,23.49c-1.76,12.61-.6,22.3,3.43,29-4.23-2.39-8.54-4.55-12.89-6.47a134.75,134.75,0,0,0-14.55-5.43,10,10,0,0,0,2.66-1.88,15.25,15.25,0,0,0,3.75-6.47c2.69-8.73-.28-19.33-8.83-31.49a104.67,104.67,0,0,0-10.12-12.19c-.86-.89-1.56-1.6-2.14-2.18a2.28,2.28,0,0,0-1.49-.65,2.33,2.33,0,0,0-.78.1,2.29,2.29,0,0,0-1.55,1.74c-.27,1.44-.57,3.25-.89,5.38a113.09,113.09,0,0,0-1.33,20.13c.41,11.35,3.09,19.47,8,24.25a127.47,127.47,0,0,0-23.3-2.53,7.94,7.94,0,0,0,.74-.89,12.3,12.3,0,0,0,2.06-5.61c.75-6.07-1.84-12.69-7.71-19.67A76.64,76.64,0,0,0,370.5,186c-1-.78-2-1.49-2.85-2.1a2.31,2.31,0,0,0-1.2-.41,2.23,2.23,0,0,0-1.15.26,2.26,2.26,0,0,0-1.22,2c0,1,0,2.13.05,3.46a90.35,90.35,0,0,0,1.75,16c1.92,9,5.22,15.08,9.82,18.14a139.81,139.81,0,0,0-20.58,3,9.14,9.14,0,0,0,.71-4.22c-.56-11.07-16.51-19.27-19.7-20.8a2.07,2.07,0,0,0-.87-.22,2.23,2.23,0,0,0-1.48.46,2.26,2.26,0,0,0-.85,2.22c.09.44.18.92.29,1.46a67.94,67.94,0,0,0,3.37,11.61q3.72,9.2,9.13,11.91c-4.58,1.37-9.38,3.09-15,5.37a6.52,6.52,0,0,0,.22-2.11c-.19-3.73-2.85-7.37-7.9-10.83a42,42,0,0,0-3.76-2.25,2.07,2.07,0,0,0-1-.27,2.26,2.26,0,0,0-2.32,2.73,44.4,44.4,0,0,0,2.12,7.1c1.76,4.37,4,7.1,6.58,8.17-3.93,1.72-7.68,3.54-11.52,5.57a6.4,6.4,0,0,0-1.74-.33h-.35c-6.17,0-11.22,6.88-13.69,11a2.27,2.27,0,0,0,1.83,3.43l.48,0c13.32-2.19,15.92-7.13,16.29-9.9,3.34-1.65,6.65-3.15,10.12-4.59-1.3,2.33-1.49,5.68-.56,10a44.89,44.89,0,0,0,2.23,7.05,2.28,2.28,0,0,0,2,1.41h0a2.26,2.26,0,0,0,2.11-1.21c2.23-4.24,5.49-12.13,2.31-17.39a6,6,0,0,0-2.09-2.14l-.11-.05c5.06-1.93,9.43-3.41,13.56-4.61-2.57,3.34-3.37,8.55-2.37,15.55a67.55,67.55,0,0,0,2.91,11.71l.48,1.38a2.27,2.27,0,0,0,1.86,1.48h.16a2.25,2.25,0,0,0,2-1l.66-1c9.53-14.81,7.8-23.15,5.92-26.8a9.2,9.2,0,0,0-2.89-3.43l-.07,0,1.87-.38A133.46,133.46,0,0,1,374.9,230c-4.22,3.09-6.81,9.05-7.72,17.79a82.23,82.23,0,0,0,0,14.67c.09,1.08.17,2,.25,2.73a2.28,2.28,0,0,0,1.43,1.88,2.2,2.2,0,0,0,.71.15,2.24,2.24,0,0,0,1.61-.57l.51-.45a77.87,77.87,0,0,0,7.58-7.83c7.13-8.56,10.09-16.56,8.54-23.13a11.16,11.16,0,0,0-2.4-4.87c-.17-.19-.34-.36-.52-.53a121.93,121.93,0,0,1,24.41,3c.49.11,1,.24,1.46.36-6.16,2.05-11.18,8.3-14.93,18.66a97.74,97.74,0,0,0-4.24,16.88c-.25,1.57-.46,2.93-.61,4a2.27,2.27,0,0,0,.93,2.15,2.24,2.24,0,0,0,1.21.42,2.26,2.26,0,0,0,1.13-.24c1.32-.68,2.77-1.46,4.07-2.2a79.78,79.78,0,0,0,14.6-10.54c6.74-6.34,10.2-12.76,10.29-19.09a13.18,13.18,0,0,0-1.37-6.31c-.12-.22-.26-.45-.4-.68a130.17,130.17,0,0,1,13,5.26,136.42,136.42,0,0,1,14.4,7.83c-8.64,0-17.1,6.71-25.15,19.84a121,121,0,0,0-8.1,16c-.61,1.47-1.13,2.75-1.54,3.8a2.27,2.27,0,0,0,.39,2.29,2.23,2.23,0,0,0,1.61.79,2,2,0,0,0,.6-.05A109.1,109.1,0,0,0,434,286.69c13.9-5.78,22.48-13.52,24.82-22.4a15.24,15.24,0,0,0,.23-7.47c0-.09-.07-.27-.15-.52,6.11,4.61,10.83,9.26,17.09,15.63,3.13,3.18,6.15,6.52,9,9.91,1.45,1.74,2.84,3.49,4.13,5.2.79,1,1.41,1.89,1.95,2.66l.32.43a5.23,5.23,0,0,0,3.88,2.22l.42,0a5.28,5.28,0,0,0,2.85-.85,4.56,4.56,0,0,0,1.21-6.52Z" transform="translate(-154.91 -174.07)"/></svg>